<?xml version="1.0" encoding="UTF-8" standalone="no"?>
<!-- Generator: Adobe Illustrator 17.1.0, SVG Export Plug-In . SVG Version: 6.00 Build 0)  -->

<svg
   version="1.1"
   id="Social_network"
   x="0px"
   y="0px"
   viewBox="0 0 120 80"
   enable-background="new 0 0 120 80"
   xml:space="preserve"
   sodipodi:docname="icons_social.svg"
   inkscape:version="1.3.2 (091e20e, 2023-11-25, custom)"
   xmlns:inkscape="http://www.inkscape.org/namespaces/inkscape"
   xmlns:sodipodi="http://sodipodi.sourceforge.net/DTD/sodipodi-0.dtd"
   xmlns="http://www.w3.org/2000/svg"
   xmlns:svg="http://www.w3.org/2000/svg"><defs
   id="defs6" /><sodipodi:namedview
   id="namedview6"
   pagecolor="#ffffff"
   bordercolor="#000000"
   borderopacity="0.25"
   inkscape:showpageshadow="2"
   inkscape:pageopacity="0.0"
   inkscape:pagecheckerboard="0"
   inkscape:deskcolor="#d1d1d1"
   inkscape:zoom="5.8689863"
   inkscape:cx="16.442362"
   inkscape:cy="72.329356"
   inkscape:window-width="1920"
   inkscape:window-height="1121"
   inkscape:window-x="2351"
   inkscape:window-y="1354"
   inkscape:window-maximized="1"
   inkscape:current-layer="Social_network" />

<path
   id="path1"
   style="fill:#797979;stroke-width:0.755906;paint-order:stroke fill markers"
   d="M 59.999999 5.6136499e-08 A 20 20 0 0 0 39.999999 20 A 20 20 0 0 0 59.999999 39.999999 A 20 20 0 0 0 79.999999 20 A 20 20 0 0 0 59.999999 5.6136499e-08 z M 52.874999 10.330078 C 54.289779 10.330078 55.441468 11.480189 55.441405 12.894531 C 55.441405 14.309436 54.289779 15.460937 52.874999 15.460937 C 51.459095 15.460937 50.308593 14.309498 50.308593 12.894531 C 50.308593 11.480189 51.459095 10.330078 52.874999 10.330078 z M 64.718749 16.232422 C 69.101718 16.232422 69.691405 19.40075 69.691405 22.5 L 69.691405 29.357421 C 69.691405 29.530126 69.55161 29.669921 69.378905 29.669921 L 65.49414 29.669921 C 65.321434 29.669921 65.18164 29.530126 65.18164 29.357421 L 65.18164 23.279296 C 65.18164 21.577508 65.056967 20.277343 63.474608 20.277343 C 62.021685 20.277343 61.455077 21.087596 61.455077 23.171875 L 61.455077 29.357421 C 61.455077 29.530126 61.315282 29.669921 61.142577 29.669921 L 57.259765 29.669921 C 57.08706 29.669921 56.947265 29.530126 56.947265 29.357421 L 56.947265 16.857422 C 56.947265 16.684779 57.08706 16.544922 57.259765 16.544922 L 60.986327 16.544922 C 61.159032 16.544922 61.298827 16.684779 61.298827 16.857422 L 61.298827 17.667968 C 61.999589 16.904552 63.155837 16.232422 64.718749 16.232422 z M 50.929687 16.544922 L 54.820312 16.544922 C 54.993015 16.544922 55.132812 16.684779 55.132812 16.857422 L 55.132812 29.357421 C 55.132812 29.530126 54.993015 29.669921 54.820312 29.669921 L 50.929687 29.669921 C 50.756982 29.669921 50.615234 29.530126 50.615234 29.357421 L 50.615234 16.857422 C 50.615234 16.684779 50.756982 16.544922 50.929687 16.544922 z "
   inkscape:label="path1" /><path
   id="path2"
   style="fill:#e1580a;stroke:none;stroke-width:0.755906;paint-order:stroke fill markers;fill-opacity:1"
   d="M 60 40 A 20 20 0 0 0 40 60 A 20 20 0 0 0 60 80 A 20 20 0 0 0 80 60 A 20 20 0 0 0 60 40 z M 52.875 50.328125 C 54.289777 50.328125 55.441476 51.478233 55.441406 52.892578 C 55.441406 54.307476 54.289777 55.458984 52.875 55.458984 C 51.459092 55.458984 50.308594 54.307546 50.308594 52.892578 C 50.308594 51.478232 51.459092 50.328125 52.875 50.328125 z M 64.71875 56.232422 C 69.101711 56.232422 69.691406 59.400757 69.691406 62.5 L 69.691406 69.357422 C 69.691406 69.530123 69.551616 69.669922 69.378906 69.669922 L 65.494141 69.669922 C 65.321432 69.669922 65.181641 69.530123 65.181641 69.357422 L 65.181641 63.279297 C 65.181642 61.577511 65.056967 60.275391 63.474609 60.275391 C 62.021693 60.275391 61.455078 61.0876 61.455078 63.171875 L 61.455078 69.357422 C 61.455078 69.530123 61.315278 69.669922 61.142578 69.669922 L 57.259766 69.669922 C 57.087056 69.669922 56.947266 69.530123 56.947266 69.357422 L 56.947266 56.855469 C 56.947265 56.68282 57.087056 56.542969 57.259766 56.542969 L 60.986328 56.542969 C 61.159028 56.542969 61.298828 56.68282 61.298828 56.855469 L 61.298828 57.667969 C 61.999596 56.904551 63.155843 56.232422 64.71875 56.232422 z M 50.927734 56.542969 L 54.820312 56.542969 C 54.993012 56.542969 55.132812 56.68282 55.132812 56.855469 L 55.132812 69.357422 C 55.132813 69.530123 54.993012 69.669922 54.820312 69.669922 L 50.927734 69.669922 C 50.755025 69.669922 50.615234 69.530123 50.615234 69.357422 L 50.615234 56.855469 C 50.615234 56.68282 50.755025 56.542969 50.927734 56.542969 z "
   inkscape:label="path2" />
<path
   fill="#777777"
   d="M100,0C89,0,80,9,80,20c0,11,9,20,20,20s20-9,20-20C120,9,111,0,100,0z M110.6,24.4  c-0.1,1.1-0.2,1.9-0.5,2.6c-0.3,0.7-0.6,1.3-1.2,1.9c-0.6,0.6-1.2,1-1.9,1.2c-0.7,0.3-1.4,0.4-2.6,0.5c-1.1,0.1-1.5,0.1-4.4,0.1  s-3.2,0-4.4-0.1c-1.1-0.1-1.9-0.2-2.6-0.5c-0.7-0.3-1.3-0.6-1.9-1.2c-0.6-0.6-1-1.2-1.2-1.9c-0.3-0.7-0.4-1.4-0.5-2.6  c-0.1-1.1-0.1-1.5-0.1-4.4c0-2.9,0-3.2,0.1-4.4c0.1-1.1,0.2-1.9,0.5-2.6c0.3-0.7,0.6-1.3,1.2-1.9c0.6-0.6,1.2-1,1.9-1.2  c0.7-0.3,1.4-0.4,2.6-0.5c1.1-0.1,1.5-0.1,4.4-0.1s3.2,0,4.4,0.1c1.1,0.1,1.9,0.2,2.6,0.5c0.7,0.3,1.3,0.6,1.9,1.2  c0.6,0.6,1,1.2,1.2,1.9c0.3,0.7,0.4,1.4,0.5,2.6c0.1,1.1,0.1,1.5,0.1,4.4C110.6,22.9,110.6,23.2,110.6,24.4z M108.3,13.7  c-0.2-0.5-0.4-0.8-0.8-1.2c-0.4-0.4-0.7-0.6-1.2-0.8c-0.4-0.1-0.9-0.3-2-0.4c-1.1-0.1-1.5-0.1-4.3-0.1s-3.2,0-4.3,0.1  c-1,0-1.6,0.2-2,0.4c-0.5,0.2-0.8,0.4-1.2,0.8c-0.4,0.4-0.6,0.7-0.8,1.2c-0.1,0.4-0.3,0.9-0.4,2c-0.1,1.1-0.1,1.5-0.1,4.3  s0,3.2,0.1,4.3c0,1,0.2,1.6,0.4,2c0.2,0.5,0.4,0.8,0.8,1.2s0.7,0.6,1.2,0.8c0.4,0.1,0.9,0.3,2,0.4c1.1,0.1,1.5,0.1,4.3,0.1  s3.2,0,4.3-0.1c1,0,1.6-0.2,2-0.4c0.5-0.2,0.8-0.4,1.2-0.8c0.4-0.4,0.6-0.7,0.8-1.2c0.1-0.4,0.3-0.9,0.4-2c0.1-1.1,0.1-1.5,0.1-4.3  s0-3.2-0.1-4.3C108.6,14.7,108.4,14.1,108.3,13.7z M100,25.5c-3,0-5.5-2.4-5.5-5.5s2.4-5.5,5.5-5.5s5.5,2.4,5.5,5.5  S103,25.5,100,25.5z M105.7,15.6c-0.7,0-1.3-0.6-1.3-1.3c0-0.7,0.6-1.3,1.3-1.3s1.3,0.6,1.3,1.3C106.9,15,106.4,15.6,105.7,15.6z   M103.5,20c0,2-1.6,3.5-3.5,3.5S96.5,22,96.5,20c0-2,1.6-3.5,3.5-3.5S103.5,18,103.5,20z"
   id="path3" />
<path
   fill="#E1580A"
   d="M100,40c-11,0-20,9-20,20c0,11,9,20,20,20s20-9,20-20C120,49,111,40,100,40z M110.6,64.4  c-0.1,1.1-0.2,1.9-0.5,2.6c-0.3,0.7-0.6,1.3-1.2,1.9c-0.6,0.6-1.2,1-1.9,1.2c-0.7,0.3-1.4,0.4-2.6,0.5c-1.1,0.1-1.5,0.1-4.4,0.1  s-3.2,0-4.4-0.1c-1.1-0.1-1.9-0.2-2.6-0.5c-0.7-0.3-1.3-0.6-1.9-1.2c-0.6-0.6-1-1.2-1.2-1.9c-0.3-0.7-0.4-1.4-0.5-2.6  c-0.1-1.1-0.1-1.5-0.1-4.4c0-2.9,0-3.2,0.1-4.4c0.1-1.1,0.2-1.9,0.5-2.6c0.3-0.7,0.6-1.3,1.2-1.9c0.6-0.6,1.2-1,1.9-1.2  c0.7-0.3,1.4-0.4,2.6-0.5c1.1-0.1,1.5-0.1,4.4-0.1s3.2,0,4.4,0.1c1.1,0.1,1.9,0.2,2.6,0.5c0.7,0.3,1.3,0.6,1.9,1.2  c0.6,0.6,1,1.2,1.2,1.9c0.3,0.7,0.4,1.4,0.5,2.6c0.1,1.1,0.1,1.5,0.1,4.4C110.6,62.9,110.6,63.2,110.6,64.4z M108.3,53.7  c-0.2-0.5-0.4-0.8-0.8-1.2c-0.4-0.4-0.7-0.6-1.2-0.8c-0.4-0.1-0.9-0.3-2-0.4c-1.1-0.1-1.5-0.1-4.3-0.1s-3.2,0-4.3,0.1  c-1,0-1.6,0.2-2,0.4c-0.5,0.2-0.8,0.4-1.2,0.8c-0.4,0.4-0.6,0.7-0.8,1.2c-0.1,0.4-0.3,0.9-0.4,2c-0.1,1.1-0.1,1.5-0.1,4.3  s0,3.2,0.1,4.3c0,1,0.2,1.6,0.4,2c0.2,0.5,0.4,0.8,0.8,1.2s0.7,0.6,1.2,0.8c0.4,0.1,0.9,0.3,2,0.4c1.1,0.1,1.5,0.1,4.3,0.1  s3.2,0,4.3-0.1c1,0,1.6-0.2,2-0.4c0.5-0.2,0.8-0.4,1.2-0.8c0.4-0.4,0.6-0.7,0.8-1.2c0.1-0.4,0.3-0.9,0.4-2c0.1-1.1,0.1-1.5,0.1-4.3  s0-3.2-0.1-4.3C108.6,54.7,108.4,54.1,108.3,53.7z M100,65.5c-3,0-5.5-2.4-5.5-5.5s2.4-5.5,5.5-5.5s5.5,2.4,5.5,5.5  S103,65.5,100,65.5z M105.7,55.6c-0.7,0-1.3-0.6-1.3-1.3s0.6-1.3,1.3-1.3s1.3,0.6,1.3,1.3S106.4,55.6,105.7,55.6z M103.5,60  c0,2-1.6,3.5-3.5,3.5S96.5,62,96.5,60c0-2,1.6-3.5,3.5-3.5S103.5,58,103.5,60z"
   id="path4" />
<path
   fill="#777777"
   d="M40,20C40,9,31,0,20,0S0,9,0,20c0,10,7.3,18.3,16.9,19.8v-14h-5.1V20h5.1v-4.4c0-5,3-7.8,7.6-7.8  c2.2,0,4.5,0.4,4.5,0.4v4.9h-2.5c-2.5,0-3.3,1.5-3.3,3.1V20h5.5l-0.9,5.8h-4.7v14C32.7,38.3,40,30,40,20z"
   id="path5" />
<path
   fill="#E1580A"
   d="M40,60c0-11-9-20-20-20S0,49,0,60c0,10,7.3,18.3,16.9,19.8v-14h-5.1V60h5.1v-4.4c0-5,3-7.8,7.6-7.8  c2.2,0,4.5,0.4,4.5,0.4v4.9h-2.5c-2.5,0-3.3,1.5-3.3,3.1V60h5.5l-0.9,5.8h-4.7v14C32.7,78.3,40,70,40,60z"
   id="path6" />
</svg>
