<?xml version="1.0" encoding="utf-8"?>
<!-- Generator: Adobe Illustrator 17.1.0, SVG Export Plug-In . SVG Version: 6.00 Build 0)  -->
<!DOCTYPE svg PUBLIC "-//W3C//DTD SVG 1.1//EN" "http://www.w3.org/Graphics/SVG/1.1/DTD/svg11.dtd">
<svg version="1.1" id="ICONS" xmlns="http://www.w3.org/2000/svg" xmlns:xlink="http://www.w3.org/1999/xlink" x="0px" y="0px"
	 viewBox="0 0 150 150" enable-background="new 0 0 150 150" xml:space="preserve">
<path fill="#777777" d="M20,20H0v0c1.6-3.9,5.5-6.7,10-6.7S18.4,16.1,20,20L20,20z M10,0.8c-2.8,0-5,2.2-5,5s2.2,5,5,5s5-2.2,5-5
	S12.8,0.8,10,0.8z"/>
<path fill="#58BAAB" d="M20,45H0v0c1.6-3.9,5.5-6.7,10-6.7S18.4,41.1,20,45L20,45z M10,25.8c-2.8,0-5,2.2-5,5s2.2,5,5,5s5-2.2,5-5
	S12.8,25.8,10,25.8z"/>
<path fill="#E1580A" d="M25,75H0v0c2-4.9,6.9-8.3,12.5-8.3S23,70.1,25,75L25,75z M12.5,51c-3.5,0-6.3,2.8-6.3,6.3
	c0,3.5,2.8,6.3,6.3,6.3s6.3-2.8,6.3-6.3C18.8,53.8,15.9,51,12.5,51z"/>
<path fill="#777777" d="M42.5,0.8c-2,2.2-4.6,3.9-7.5,4.6v3.4c0,5.1,3.1,9.4,7.5,11.2c4.4-1.8,7.5-6.1,7.5-11.1V8.8h0V5.4
	C47.1,4.7,44.5,3,42.5,0.8z"/>
<path fill="#E1580A" d="M39.4,51c-2.4,2.8-5.7,4.8-9.4,5.8V61c0,6.3,3.9,11.7,9.4,14c5.5-2.2,9.3-7.6,9.4-13.9V61h0v-4.2
	C45.1,55.8,41.8,53.8,39.4,51z"/>
<path fill="#58BAAB" d="M42.5,25.8c-2,2.2-4.6,3.9-7.5,4.6v3.4c0,5.1,3.1,9.4,7.5,11.2c4.4-1.8,7.5-6.1,7.5-11.1v-0.1h0v-3.4
	C47.1,29.7,44.5,28,42.5,25.8z"/>
<polygon fill="#777777" points="131.9,5.7 129.3,3.1 120,12.3 110.7,3.1 108.1,5.7 117.3,15 108.1,24.3 110.7,26.9 120,17.7 
	129.3,26.9 131.9,24.3 122.7,15 "/>
<polygon fill="#E1580A" points="131.9,40.7 129.3,38.1 120,47.3 110.7,38.1 108.1,40.7 117.3,50 108.1,59.3 110.7,61.9 120,52.7 
	129.3,61.9 131.9,59.3 122.7,50 "/>
<path fill="#777777" d="M100,8.8H70V5h30V8.8z M100,21.3H70V25h30V21.3z M100,13.1H70v3.8h30V13.1z"/>
<path fill="#E1580A" d="M100,43.8H70V40h30V43.8z M100,56.2H70V60h30V56.2z M100,48.1H70v3.8h30V48.1z"/>
<polygon fill="#777777" points="23,8.3 26.3,11.7 29.7,8.3 "/>
<polygon fill="#777777" points="54,8.3 57.3,11.7 60.7,8.3 "/>
<polygon fill="#58BAAB" points="23,33.3 26.3,36.7 29.7,33.3 "/>
<polygon fill="#58BAAB" points="54,33.3 57.3,36.7 60.7,33.3 "/>
<path fill="#E1580A" d="M7.5,80C3.4,80,0,83.4,0,87.5C0,91.6,3.4,95,7.5,95s7.5-3.4,7.5-7.5C15,83.4,11.6,80,7.5,80z M6.7,91.8
	l-3.6-3.2l1.3-1.5l2,1.8l4-5.1L12,85L6.7,91.8z"/>
<circle fill="#777777" cx="27.5" cy="87.5" r="1.6"/>
</svg>
