<?xml version="1.0" encoding="utf-8"?>
<!-- Generator: Adobe Illustrator 17.1.0, SVG Export Plug-In . SVG Version: 6.00 Build 0)  -->
<!DOCTYPE svg PUBLIC "-//W3C//DTD SVG 1.1//EN" "http://www.w3.org/Graphics/SVG/1.1/DTD/svg11.dtd">
<svg version="1.1" id="Social_network" xmlns="http://www.w3.org/2000/svg" xmlns:xlink="http://www.w3.org/1999/xlink" x="0px"
	 y="0px" viewBox="0 0 120 80" enable-background="new 0 0 120 80" xml:space="preserve">
<path fill="#777777" d="M60,0C49,0,40,9,40,20c0,11,9,20,20,20s20-9,20-20C80,9,71,0,60,0z M69.4,16.1c0,0.2,0,0.4,0,0.6
	c0,5.8-4.4,12.6-12.6,12.6c-2.5,0-4.8-0.7-6.8-2c0.3,0,0.7,0.1,1.1,0.1c2.1,0,4-0.7,5.5-1.9c-1.9,0-3.6-1.3-4.1-3.1
	c0.3,0.1,0.5,0.1,0.8,0.1c0.4,0,0.8-0.1,1.2-0.2c-2-0.4-3.5-2.2-3.5-4.3c0,0,0,0,0-0.1c0.6,0.3,1.3,0.5,2,0.6c-1.2-0.8-2-2.1-2-3.7
	c0-0.8,0.2-1.6,0.6-2.2c2.2,2.7,5.4,4.4,9.1,4.6c-0.1-0.3-0.1-0.7-0.1-1c0-2.4,2-4.4,4.4-4.4c1.3,0,2.4,0.5,3.2,1.4
	c1-0.2,2-0.6,2.8-1.1c-0.3,1-1,1.9-1.9,2.4c0.9-0.1,1.7-0.3,2.5-0.7C71,14.7,70.2,15.5,69.4,16.1z"/>
<path fill="#E1580A" d="M60,40c-11,0-20,9-20,20c0,11,9,20,20,20s20-9,20-20C80,49,71,40,60,40z M69.4,56.1c0,0.2,0,0.4,0,0.6
	c0,5.8-4.4,12.6-12.6,12.6c-2.5,0-4.8-0.7-6.8-2c0.3,0,0.7,0.1,1.1,0.1c2.1,0,4-0.7,5.5-1.9c-1.9,0-3.6-1.3-4.1-3.1
	c0.3,0.1,0.5,0.1,0.8,0.1c0.4,0,0.8-0.1,1.2-0.2c-2-0.4-3.5-2.2-3.5-4.3c0,0,0,0,0-0.1c0.6,0.3,1.3,0.5,2,0.6c-1.2-0.8-2-2.1-2-3.7
	c0-0.8,0.2-1.6,0.6-2.2c2.2,2.7,5.4,4.4,9.1,4.6c-0.1-0.3-0.1-0.7-0.1-1c0-2.4,2-4.4,4.4-4.4c1.3,0,2.4,0.5,3.2,1.4
	c1-0.2,2-0.6,2.8-1.1c-0.3,1-1,1.9-1.9,2.4c0.9-0.1,1.7-0.3,2.5-0.7C71,54.7,70.2,55.5,69.4,56.1z"/>
<path fill="#777777" d="M100,0C89,0,80,9,80,20c0,11,9,20,20,20s20-9,20-20C120,9,111,0,100,0z M110.6,24.4
	c-0.1,1.1-0.2,1.9-0.5,2.6c-0.3,0.7-0.6,1.3-1.2,1.9c-0.6,0.6-1.2,1-1.9,1.2c-0.7,0.3-1.4,0.4-2.6,0.5c-1.1,0.1-1.5,0.1-4.4,0.1
	s-3.2,0-4.4-0.1c-1.1-0.1-1.9-0.2-2.6-0.5c-0.7-0.3-1.3-0.6-1.9-1.2c-0.6-0.6-1-1.2-1.2-1.9c-0.3-0.7-0.4-1.4-0.5-2.6
	c-0.1-1.1-0.1-1.5-0.1-4.4c0-2.9,0-3.2,0.1-4.4c0.1-1.1,0.2-1.9,0.5-2.6c0.3-0.7,0.6-1.3,1.2-1.9c0.6-0.6,1.2-1,1.9-1.2
	c0.7-0.3,1.4-0.4,2.6-0.5c1.1-0.1,1.5-0.1,4.4-0.1s3.2,0,4.4,0.1c1.1,0.1,1.9,0.2,2.6,0.5c0.7,0.3,1.3,0.6,1.9,1.2
	c0.6,0.6,1,1.2,1.2,1.9c0.3,0.7,0.4,1.4,0.5,2.6c0.1,1.1,0.1,1.5,0.1,4.4C110.6,22.9,110.6,23.2,110.6,24.4z M108.3,13.7
	c-0.2-0.5-0.4-0.8-0.8-1.2c-0.4-0.4-0.7-0.6-1.2-0.8c-0.4-0.1-0.9-0.3-2-0.4c-1.1-0.1-1.5-0.1-4.3-0.1s-3.2,0-4.3,0.1
	c-1,0-1.6,0.2-2,0.4c-0.5,0.2-0.8,0.4-1.2,0.8c-0.4,0.4-0.6,0.7-0.8,1.2c-0.1,0.4-0.3,0.9-0.4,2c-0.1,1.1-0.1,1.5-0.1,4.3
	s0,3.2,0.1,4.3c0,1,0.2,1.6,0.4,2c0.2,0.5,0.4,0.8,0.8,1.2s0.7,0.6,1.2,0.8c0.4,0.1,0.9,0.3,2,0.4c1.1,0.1,1.5,0.1,4.3,0.1
	s3.2,0,4.3-0.1c1,0,1.6-0.2,2-0.4c0.5-0.2,0.8-0.4,1.2-0.8c0.4-0.4,0.6-0.7,0.8-1.2c0.1-0.4,0.3-0.9,0.4-2c0.1-1.1,0.1-1.5,0.1-4.3
	s0-3.2-0.1-4.3C108.6,14.7,108.4,14.1,108.3,13.7z M100,25.5c-3,0-5.5-2.4-5.5-5.5s2.4-5.5,5.5-5.5s5.5,2.4,5.5,5.5
	S103,25.5,100,25.5z M105.7,15.6c-0.7,0-1.3-0.6-1.3-1.3c0-0.7,0.6-1.3,1.3-1.3s1.3,0.6,1.3,1.3C106.9,15,106.4,15.6,105.7,15.6z
	 M103.5,20c0,2-1.6,3.5-3.5,3.5S96.5,22,96.5,20c0-2,1.6-3.5,3.5-3.5S103.5,18,103.5,20z"/>
<path fill="#E1580A" d="M100,40c-11,0-20,9-20,20c0,11,9,20,20,20s20-9,20-20C120,49,111,40,100,40z M110.6,64.4
	c-0.1,1.1-0.2,1.9-0.5,2.6c-0.3,0.7-0.6,1.3-1.2,1.9c-0.6,0.6-1.2,1-1.9,1.2c-0.7,0.3-1.4,0.4-2.6,0.5c-1.1,0.1-1.5,0.1-4.4,0.1
	s-3.2,0-4.4-0.1c-1.1-0.1-1.9-0.2-2.6-0.5c-0.7-0.3-1.3-0.6-1.9-1.2c-0.6-0.6-1-1.2-1.2-1.9c-0.3-0.7-0.4-1.4-0.5-2.6
	c-0.1-1.1-0.1-1.5-0.1-4.4c0-2.9,0-3.2,0.1-4.4c0.1-1.1,0.2-1.9,0.5-2.6c0.3-0.7,0.6-1.3,1.2-1.9c0.6-0.6,1.2-1,1.9-1.2
	c0.7-0.3,1.4-0.4,2.6-0.5c1.1-0.1,1.5-0.1,4.4-0.1s3.2,0,4.4,0.1c1.1,0.1,1.9,0.2,2.6,0.5c0.7,0.3,1.3,0.6,1.9,1.2
	c0.6,0.6,1,1.2,1.2,1.9c0.3,0.7,0.4,1.4,0.5,2.6c0.1,1.1,0.1,1.5,0.1,4.4C110.6,62.9,110.6,63.2,110.6,64.4z M108.3,53.7
	c-0.2-0.5-0.4-0.8-0.8-1.2c-0.4-0.4-0.7-0.6-1.2-0.8c-0.4-0.1-0.9-0.3-2-0.4c-1.1-0.1-1.5-0.1-4.3-0.1s-3.2,0-4.3,0.1
	c-1,0-1.6,0.2-2,0.4c-0.5,0.2-0.8,0.4-1.2,0.8c-0.4,0.4-0.6,0.7-0.8,1.2c-0.1,0.4-0.3,0.9-0.4,2c-0.1,1.1-0.1,1.5-0.1,4.3
	s0,3.2,0.1,4.3c0,1,0.2,1.6,0.4,2c0.2,0.5,0.4,0.8,0.8,1.2s0.7,0.6,1.2,0.8c0.4,0.1,0.9,0.3,2,0.4c1.1,0.1,1.5,0.1,4.3,0.1
	s3.2,0,4.3-0.1c1,0,1.6-0.2,2-0.4c0.5-0.2,0.8-0.4,1.2-0.8c0.4-0.4,0.6-0.7,0.8-1.2c0.1-0.4,0.3-0.9,0.4-2c0.1-1.1,0.1-1.5,0.1-4.3
	s0-3.2-0.1-4.3C108.6,54.7,108.4,54.1,108.3,53.7z M100,65.5c-3,0-5.5-2.4-5.5-5.5s2.4-5.5,5.5-5.5s5.5,2.4,5.5,5.5
	S103,65.5,100,65.5z M105.7,55.6c-0.7,0-1.3-0.6-1.3-1.3s0.6-1.3,1.3-1.3s1.3,0.6,1.3,1.3S106.4,55.6,105.7,55.6z M103.5,60
	c0,2-1.6,3.5-3.5,3.5S96.5,62,96.5,60c0-2,1.6-3.5,3.5-3.5S103.5,58,103.5,60z"/>
<path fill="#777777" d="M40,20C40,9,31,0,20,0S0,9,0,20c0,10,7.3,18.3,16.9,19.8v-14h-5.1V20h5.1v-4.4c0-5,3-7.8,7.6-7.8
	c2.2,0,4.5,0.4,4.5,0.4v4.9h-2.5c-2.5,0-3.3,1.5-3.3,3.1V20h5.5l-0.9,5.8h-4.7v14C32.7,38.3,40,30,40,20z"/>
<path fill="#E1580A" d="M40,60c0-11-9-20-20-20S0,49,0,60c0,10,7.3,18.3,16.9,19.8v-14h-5.1V60h5.1v-4.4c0-5,3-7.8,7.6-7.8
	c2.2,0,4.5,0.4,4.5,0.4v4.9h-2.5c-2.5,0-3.3,1.5-3.3,3.1V60h5.5l-0.9,5.8h-4.7v14C32.7,78.3,40,70,40,60z"/>
</svg>
